<mxfile host="app.diagrams.net" modified="2023-11-19T12:41:48.684Z" agent="Mozilla/5.0 (Windows NT 10.0; Win64; x64) AppleWebKit/537.36 (KHTML, like Gecko) Chrome/119.0.0.0 Safari/537.36" etag="EQcm8k9AcO5TE75LWLqF" version="22.1.3" type="device">
  <diagram name="第1頁" id="qsWvBIB2skzc2rwaHGE7">
    <mxGraphModel dx="1834" dy="782" grid="0" gridSize="10" guides="1" tooltips="1" connect="1" arrows="1" fold="1" page="0" pageScale="1" pageWidth="827" pageHeight="1169" math="0" shadow="0">
      <root>
        <mxCell id="0" />
        <mxCell id="1" parent="0" />
        <mxCell id="T1XDpxsoR2qlJrj7aXqb-4" value="" style="rounded=0;whiteSpace=wrap;html=1;fillColor=#d5e8d4;strokeColor=#82b366;" vertex="1" parent="1">
          <mxGeometry x="-132" y="155.5" width="480" height="261" as="geometry" />
        </mxCell>
        <mxCell id="T1XDpxsoR2qlJrj7aXqb-3" value="" style="rounded=0;whiteSpace=wrap;html=1;fillColor=#fff2cc;strokeColor=#d6b656;" vertex="1" parent="1">
          <mxGeometry x="-83" y="221.5" width="367" height="129" as="geometry" />
        </mxCell>
        <mxCell id="T1XDpxsoR2qlJrj7aXqb-1" value="Openembedded" style="rounded=0;whiteSpace=wrap;html=1;fillColor=#dae8fc;strokeColor=#6c8ebf;" vertex="1" parent="1">
          <mxGeometry x="-44" y="256" width="120" height="60" as="geometry" />
        </mxCell>
        <mxCell id="T1XDpxsoR2qlJrj7aXqb-2" value="bitbake" style="rounded=0;whiteSpace=wrap;html=1;fillColor=#f8cecc;strokeColor=#b85450;" vertex="1" parent="1">
          <mxGeometry x="102" y="256" width="120" height="60" as="geometry" />
        </mxCell>
        <mxCell id="T1XDpxsoR2qlJrj7aXqb-5" value="poky" style="text;html=1;strokeColor=none;fillColor=none;align=center;verticalAlign=middle;whiteSpace=wrap;rounded=0;" vertex="1" parent="1">
          <mxGeometry x="222" y="318" width="60" height="30" as="geometry" />
        </mxCell>
        <mxCell id="T1XDpxsoR2qlJrj7aXqb-6" value="Yocto" style="text;html=1;strokeColor=none;fillColor=none;align=center;verticalAlign=middle;whiteSpace=wrap;rounded=0;" vertex="1" parent="1">
          <mxGeometry x="282" y="384" width="60" height="30" as="geometry" />
        </mxCell>
      </root>
    </mxGraphModel>
  </diagram>
</mxfile>
